HIERARCHY
ROOT root
{
	OFFSET 0.000000 0.000000 0.000000
	CHANNELS 6 Xposition Yposition Zposition Zrotation Yrotation Xrotation
	JOINT lhip
	{
		OFFSET 0.058581 -0.082280 -0.017664
		CHANNELS 3 Zrotation Yrotation Xrotation
		JOINT lknee
		{
			OFFSET 0.043451 -0.386469 0.008037
			CHANNELS 3 Zrotation Yrotation Xrotation
			JOINT lankle
			{
				OFFSET -0.014790 -0.426874 -0.037428
				CHANNELS 3 Zrotation Yrotation Xrotation
				JOINT ltoe
				{
					OFFSET 0.041054 -0.060286 0.122042
					CHANNELS 3 Zrotation Yrotation Xrotation
					End Site
					{
						OFFSET 0.000000 0.000000 0.000000
					}
				}
			}
		}
	}
	JOINT rhip
	{
		OFFSET -0.060310 -0.090513 -0.013543
		CHANNELS 3 Zrotation Yrotation Xrotation
		JOINT rknee
		{
			OFFSET -0.043257 -0.383688 -0.004843
			CHANNELS 3 Zrotation Yrotation Xrotation
			JOINT rankle
			{
				OFFSET 0.019056 -0.420046 -0.034562
				CHANNELS 3 Zrotation Yrotation Xrotation
				JOINT rtoe
				{
					OFFSET -0.034840 -0.062106 0.130323
					CHANNELS 3 Zrotation Yrotation Xrotation
					End Site
					{
						OFFSET 0.000000 0.000000 0.000000
					}
				}
			}
		}
	}
	JOINT lowerback
	{
		OFFSET 0.004439 0.124404 -0.038385
		CHANNELS 3 Zrotation Yrotation Xrotation
		JOINT upperback
		{
			OFFSET 0.004488 0.137956 0.026820
			CHANNELS 3 Zrotation Yrotation Xrotation
			JOINT chest
			{
				OFFSET -0.002265 0.056032 0.002855
				CHANNELS 3 Zrotation Yrotation Xrotation
				JOINT lowerneck
				{
					OFFSET -0.013390 0.211636 -0.033468
					CHANNELS 3 Zrotation Yrotation Xrotation
					JOINT upperneck
					{
						OFFSET 0.010113 0.088937 0.050410
						CHANNELS 3 Zrotation Yrotation Xrotation
						End Site
						{
							OFFSET 0.000000 0.000000 0.000000
						}
					}
				}
				JOINT lclavicle
				{
					OFFSET 0.071702 0.114000 -0.018898
					CHANNELS 3 Zrotation Yrotation Xrotation
					JOINT lshoulder
					{
						OFFSET 0.122921 0.045205 -0.019046
						CHANNELS 3 Zrotation Yrotation Xrotation
						JOINT lelbow
						{
							OFFSET 0.255332 -0.015649 -0.022946
							CHANNELS 3 Zrotation Yrotation Xrotation
							JOINT lwrist
							{
								OFFSET 0.265709 0.012698 -0.007375
								CHANNELS 3 Zrotation Yrotation Xrotation
								End Site
								{
									OFFSET 0.000000 0.000000 0.000000
								}
							}
						}
					}
				}
				JOINT rclavicle
				{
					OFFSET -0.082954 0.112472 -0.023707
					CHANNELS 3 Zrotation Yrotation Xrotation
					JOINT rshoulder
					{
						OFFSET -0.113228 0.046853 -0.008472
						CHANNELS 3 Zrotation Yrotation Xrotation
						JOINT relbow
						{
							OFFSET -0.260127 -0.014369 -0.031269
							CHANNELS 3 Zrotation Yrotation Xrotation
							JOINT rwrist
							{
								OFFSET -0.269108 0.006794 -0.006027
								CHANNELS 3 Zrotation Yrotation Xrotation
								End Site
								{
									OFFSET 0.000000 0.000000 0.000000
								}
							}
						}
					}
				}
			}
		}
	}
}
MOTION
Frames: 15
Frame Time: 0.033333
-1.664519 0.822572 0.988431 17.392148 -3.885530 86.945098 17.987196 11.140129 -13.404269 -0.718177 2.211903 16.483629 -8.106695 15.281945 18.707756 0.000000 -0.000000 0.000000 -13.869747 -13.273578 6.942184 -2.438483 -7.485081 7.346040 5.753394 -15.720242 -7.457485 0.000000 -0.000000 0.000000 -0.904980 2.638436 1.368037 -3.450552 -5.533053 2.710176 -1.299425 1.444780 -3.181479 -7.033097 30.312520 7.959476 -6.521603 18.764486 0.540873 8.056054 -2.895202 -7.789824 1.670722 -11.585565 -12.481079 10.745190 -7.935772 -8.687465 -7.465791 -17.776809 7.791568 -7.497033 0.854171 -9.424689 5.496458 8.359754 -20.451333 -19.571416 -0.384033 -29.919226 1.222658 11.821256 -4.423644 
-1.648239 0.820231 0.982617 19.276708 -1.982794 87.014595 18.463191 11.620040 -15.875958 -0.582298 4.262868 20.821637 -8.872325 16.470862 13.230410 0.000000 -0.000000 0.000000 -12.783159 -13.346715 6.822068 -2.606767 -8.075558 9.451651 6.415922 -16.499759 -8.125755 0.000000 -0.000000 0.000000 -1.852179 3.026612 2.125433 -3.815011 -5.483216 2.063431 -1.316209 1.721098 -2.725204 -7.372530 30.556513 7.462054 -6.275854 18.936014 0.183883 8.246717 -3.138746 -8.480873 1.789447 -12.038970 -12.415013 11.110584 -7.684070 -8.581436 -7.600514 -17.454188 8.403459 -8.054264 1.269936 -9.398165 3.428559 8.348041 -21.580669 -19.686859 0.260968 -30.060795 0.655979 12.274551 -4.333030 
-1.632584 0.819331 0.976147 21.158218 0.310210 87.144257 19.532812 12.756457 -18.825728 -0.461711 6.249984 25.266405 -9.357915 16.988500 8.807266 0.000000 -0.000000 0.000000 -11.150621 -13.025920 6.436048 -2.850688 -8.896943 12.045061 6.817868 -17.500508 -8.596668 0.000000 -0.000000 0.000000 -2.861693 3.519628 3.658986 -4.148383 -5.224434 1.069547 -1.292911 1.766299 -2.477394 -6.885925 31.066997 7.333552 -6.168058 18.695171 -0.123626 8.767856 -2.900089 -8.978747 1.842707 -12.822816 -12.838122 11.335176 -7.421782 -9.035652 -8.531669 -17.039933 9.648891 -9.130224 1.443926 -9.765475 2.377542 8.928811 -22.127131 -19.730106 0.852936 -28.698682 0.363231 12.704010 -4.904415 
-1.612780 0.818093 0.968192 23.529192 2.468577 87.267455 20.020293 13.094004 -21.915557 -0.804223 6.191264 29.418461 -8.960609 17.401225 4.179528 0.000000 -0.000000 0.000000 -10.189118 -13.420743 6.050967 -2.879947 -9.029654 14.988583 7.280954 -18.142955 -9.054309 0.000000 -0.000000 0.000000 -3.657855 3.865559 5.436438 -4.716559 -5.301851 0.248916 -1.407762 1.895162 -2.141614 -6.974558 30.284613 6.522920 -5.823065 18.352403 -0.946558 8.890589 -3.508509 -9.271281 2.091675 -12.131929 -12.575368 11.659859 -7.740859 -8.876934 -8.128670 -17.241280 8.672934 -10.318365 2.353323 -9.998315 1.295332 8.764719 -22.778166 -19.634338 1.946324 -27.509959 -0.904179 13.630653 -5.810407 
-1.591783 0.817308 0.958417 25.771940 4.614048 87.664889 20.683396 13.555363 -25.806362 -1.039751 7.225413 34.553201 -7.017344 17.832191 0.676810 0.000000 -0.000000 0.000000 -9.411920 -13.598510 5.282028 -2.789593 -8.730628 18.398183 7.935499 -18.275786 -9.680115 0.000000 -0.000000 0.000000 -4.714718 4.463876 7.169355 -5.237628 -5.303134 -0.178543 -1.578760 1.774849 -2.283163 -7.056098 30.897845 6.414336 -5.611969 18.686779 -1.772518 9.590963 -3.905185 -9.574418 1.698001 -11.452505 -11.630850 11.444085 -8.053839 -8.663125 -6.055605 -17.079965 7.060966 -11.122778 3.426103 -10.488428 0.202145 9.334481 -22.443447 -19.451933 3.028098 -26.453189 -3.475863 14.021985 -8.016892 
-1.570693 0.816994 0.946464 27.722460 7.239556 88.702884 21.885916 14.715847 -30.408262 -1.396248 8.958622 40.096140 -5.517070 18.639883 -2.157582 0.000000 -0.000000 0.000000 -7.856672 -13.394520 3.778852 -2.541834 -8.565300 21.835908 7.853329 -18.946545 -10.055246 0.000000 -0.000000 0.000000 -5.759376 5.242969 8.456349 -5.651812 -5.065775 -0.789101 -1.473021 1.944510 -2.081660 -6.561093 29.766341 6.295101 -5.604870 17.635610 -2.548778 9.720108 -4.993186 -9.850983 1.651898 -10.646875 -11.446494 11.446118 -8.305651 -8.476473 -5.442134 -16.777884 5.924974 -12.516905 4.791665 -10.702319 -0.463124 9.297994 -22.886639 -19.367575 4.184201 -25.453886 -4.781174 13.810672 -10.587819 
-1.546484 0.816885 0.932997 29.926942 9.472759 90.027244 22.222129 15.734006 -35.165671 -0.973774 11.386940 45.558139 -3.608696 19.349544 -5.521416 0.000000 -0.000000 0.000000 -6.806058 -13.588894 2.268967 -2.526621 -8.581866 25.044357 8.336161 -19.279618 -10.197292 0.000000 -0.000000 0.000000 -6.721094 5.968312 10.022924 -6.500127 -4.939554 -1.361290 -1.777030 2.259899 -2.187668 -7.108516 29.545846 5.102972 -4.859181 17.443036 -2.589066 9.565046 -5.559662 -10.508603 1.796549 -11.383275 -11.300782 11.527771 -8.078369 -8.742825 -5.227070 -16.099144 5.872947 -13.116845 5.336514 -10.283009 -1.980971 10.411571 -23.961183 -19.300721 4.971387 -25.569642 -5.588387 13.300993 -12.730954 
-1.519689 0.816343 0.917926 32.290982 11.805744 91.890435 22.141838 16.801859 -40.060973 -0.329689 13.719661 50.672548 -2.133571 20.685813 -9.616758 0.000000 -0.000000 0.000000 -5.487443 -13.713669 0.956598 -2.581812 -8.775178 27.240202 8.873190 -19.764114 -10.120753 0.000000 -0.000000 0.000000 -7.786432 6.787187 11.003839 -7.217990 -4.985437 -1.508027 -2.037849 2.378723 -2.564671 -7.144368 28.763098 4.290531 -4.437580 17.099229 -3.056184 9.302465 -6.723150 -11.282782 1.473117 -11.630086 -11.019539 11.702665 -7.840994 -9.310411 -3.017006 -15.333358 5.705916 -14.118170 7.010316 -11.208490 -3.206201 11.206617 -24.213006 -19.051949 5.697884 -25.344245 -8.062652 13.474095 -15.009915 
-1.489238 0.815826 0.901989 35.212770 14.148532 94.391815 21.535211 17.430676 -45.178736 0.205087 15.272525 55.600549 -0.677460 21.287785 -14.260084 0.000000 -0.000000 0.000000 -3.852814 -13.861531 -0.113431 -2.776723 -8.673038 28.309783 9.412886 -20.545615 -9.727723 0.000000 -0.000000 0.000000 -8.722047 7.684057 12.122243 -8.024947 -5.306211 -2.277561 -2.099428 2.335985 -2.762047 -7.764381 26.983034 2.851420 -3.098450 16.772047 -3.498659 8.765805 -9.410405 -11.635044 1.244021 -10.856026 -10.600155 11.966942 -7.028966 -10.697050 -0.288879 -15.196922 5.171068 -15.314277 8.877013 -11.807422 -4.564069 11.709870 -25.214052 -18.877008 7.041039 -24.824573 -10.781281 13.716533 -16.950099 
-1.453963 0.815001 0.886474 39.047702 16.525324 97.595652 20.499664 17.350502 -50.208719 0.668545 16.268217 59.877121 0.438762 21.756708 -19.283240 0.000000 -0.000000 0.000000 -1.962111 -13.929098 -0.342698 -2.837014 -8.211207 27.722365 9.782144 -21.167643 -7.723824 0.000000 -0.000000 0.000000 -9.481420 8.306844 13.547166 -8.782613 -6.100449 -3.176053 -2.144104 2.305493 -2.899198 -8.453238 25.204289 1.327690 -2.066529 16.374625 -4.595808 8.219444 -12.157533 -11.858281 1.084450 -10.791112 -11.132471 11.841733 -6.087849 -12.217405 1.792330 -14.523226 5.459273 -17.083296 10.696106 -12.528539 -5.457622 11.997413 -26.044611 -18.668356 8.466920 -24.273356 -13.065099 13.895493 -19.263281 
-1.415617 0.814486 0.874664 43.636091 19.055718 101.810932 19.490707 17.020024 -54.925538 1.104782 16.707820 63.125775 1.115426 21.719860 -24.333717 0.000000 -0.000000 0.000000 0.817892 -13.173864 -0.640883 -3.238803 -7.373175 26.090748 10.164933 -21.536072 -3.128704 0.000000 -0.000000 0.000000 -10.435006 8.773807 15.093488 -9.202830 -6.983728 -3.883683 -2.119711 1.878819 -3.153378 -8.847029 23.598443 -0.235853 -1.179892 15.144144 -5.302909 7.896949 -14.907308 -12.049209 1.075361 -10.861432 -11.249183 11.636384 -5.573911 -13.931219 4.063253 -14.867428 4.981501 -18.738741 12.657799 -13.918469 -6.158773 12.215709 -26.252061 -18.894158 9.948690 -24.196374 -16.099936 13.618492 -21.490717 
-1.372215 0.814797 0.866848 49.292139 21.437028 107.829224 18.806578 15.894051 -59.935636 0.532468 15.833809 64.590751 1.196299 21.433560 -28.255409 0.000000 -0.000000 0.000000 3.889600 -11.760448 -1.725511 -3.094654 -6.438272 23.017331 9.698073 -21.566168 4.882866 0.000000 -0.000000 0.000000 -11.393562 8.759585 16.919647 -9.407599 -8.160450 -4.682991 -1.910514 1.138729 -3.137006 -10.683390 20.833429 -3.221371 0.086044 14.258683 -6.681668 7.257699 -17.717176 -12.540865 1.608631 -11.022997 -10.815222 11.607226 -5.778139 -14.459903 8.485763 -15.348984 3.179228 -20.598906 13.343310 -14.853945 -6.701908 12.400875 -27.358523 -19.389445 12.044143 -24.300159 -20.540942 13.113272 -24.962919 
-1.324453 0.815720 0.863513 56.410343 23.107766 115.632057 19.283251 13.467001 -65.249985 -1.347115 14.822575 65.277411 1.411880 19.775239 -29.710981 0.000000 -0.000000 0.000000 6.604666 -10.566181 -3.401820 -2.622098 -5.427870 17.932859 8.414899 -20.147526 18.117416 0.000000 -0.000000 0.000000 -12.860366 8.847933 19.156865 -8.805316 -9.752525 -4.662947 -1.508358 0.088649 -4.057069 -11.432242 18.033385 -5.517864 1.327445 13.019210 -7.793250 7.326779 -21.110442 -11.700536 1.761443 -11.914853 -10.875951 12.284343 -6.143213 -15.570626 13.422693 -15.974167 0.191769 -22.271679 13.822800 -16.335561 -7.415700 12.162051 -28.603030 -20.287843 13.803831 -25.937869 -24.174863 12.791763 -27.562948 
-1.273527 0.817081 0.860724 63.907686 24.686152 125.083234 20.416355 12.192610 -71.261726 -3.979946 13.306719 64.962268 1.748474 17.853824 -29.722919 0.000000 -0.000000 0.000000 9.313134 -8.696693 -6.602115 -1.799439 -2.137175 12.258981 8.071527 -16.314742 32.142544 0.000000 -0.000000 0.000000 -13.391435 8.555808 20.665882 -8.190163 -11.128302 -4.246501 -1.022891 -0.858889 -5.358604 -11.387268 15.765626 -6.081874 1.990484 11.816426 -11.093300 7.278476 -26.065166 -9.705099 3.166627 -12.269430 -12.274552 12.714899 -6.013940 -17.698327 18.332064 -15.773595 -3.476677 -24.637006 15.142666 -16.255462 -7.969680 10.024484 -30.914080 -21.823542 16.302635 -28.140792 -27.515041 11.880898 -30.594662 
-1.222499 0.821885 0.852312 73.870897 27.957922 138.098698 22.625591 13.202468 -79.094576 -6.482658 10.780832 63.079552 1.065519 15.426479 -30.792877 0.000000 -0.000000 0.000000 13.396174 -3.629077 -11.749009 2.811329 8.915036 6.965478 11.789254 -6.902790 40.204676 0.000000 -0.000000 0.000000 -8.480217 5.388419 19.096422 -7.557436 -12.055438 -3.006033 -1.468454 -1.625964 -6.786804 -12.648495 13.801493 -6.202602 2.297340 10.273595 -16.479860 6.384545 -31.603238 -8.121431 4.991376 -10.357871 -15.419272 12.987719 -6.264974 -22.395655 22.229212 -15.225040 -5.810446 -29.485092 18.349086 -16.540262 -9.411789 7.654108 -35.722107 -21.774596 18.436925 -30.131855 -30.614421 11.934646 -32.628491 
